# xmcd
#
# Track frame offsets:
#	150
#	11442
#	25997
#	39074
#	51469
#	64918
#	86532
#	99937
#	111510
#	123802
#	138589
#	151981
#	171687
#	184690
#	197483
#
# Disc length: 2790 seconds
#
# Revision: 0
# Processed by: cddbd v1.5.2PL0 Copyright (c) Steve Scherf et al.
# Submitted via: audiograbber 1.83.01
#
DISCID=c60ae40f
DTITLE=Various Artist - The Soul Story: Volume 8 - Disc 1
DYEAR=2006
DGENRE=Soul
TTITLE0=Marvin Gaye and Tammi Terrell - Ain't No Mountain High Enough
TTITLE1=Al Green - I'm Still In Love With You
TTITLE2=James Brown - Cold Sweat
TTITLE3=The Temptations - My Girl
TTITLE4=Smokey Robinson and the Miracles - The Tears Of A Clown
TTITLE5=Billy Paul - Me And Mrs. Jones
TTITLE6=The Four Tops - Reach Out, I'll Be There
TTITLE7=The Impressions - Keep On Pushing
TTITLE8=Jerry Butler - Hey, Western Union Man
TTITLE9=Billy Stewart - Sitting In The Park
TTITLE10=Robert Knight - Everlasting Love
TTITLE11=Gladys Knight and the Pips - Neither One Of Us (Wants to Be the First 
TTITLE11=to Say Goodbye)
TTITLE12=Lee Dorsey - Ride Your Pony
TTITLE13=The Marvelettes - The Hunter Gets Captured By The Game
TTITLE14=Shorty Long - Here Comes The Judge
EXTD=
EXTT0=
EXTT1=
EXTT2=
EXTT3=
EXTT4=
EXTT5=
EXTT6=
EXTT7=
EXTT8=
EXTT9=
EXTT10=
EXTT11=
EXTT12=
EXTT13=
EXTT14=
PLAYORDER=
